<?xml version="1.0" encoding="UTF-8"?>
<svg width="30px" height="37px" viewBox="0 0 30 37" version="1.1" xmlns="http://www.w3.org/2000/svg" xmlns:xlink="http://www.w3.org/1999/xlink">
    <!-- Generator: Sketch 53.2 (72643) - https://sketchapp.com -->
    <title>ico_2</title>
    <desc>Created with Sketch.</desc>
    <g id="Page-1" stroke="none" stroke-width="1" fill="none" fill-rule="evenodd">
        <g id="详情页" transform="translate(-46.000000, -697.000000)" fill="#000000" fill-rule="nonzero">
            <g id="分组" transform="translate(46.000000, 697.000000)">
                <path d="M0,15.4166667 C4.23913247e-16,6.16666667 6,1.47263778e-15 15,0 C24,0 30,7.70833333 30,15.4166667 C30,20.3862052 25.3241165,27.2780515 15.9723495,36.0922054 C15.4174267,36.6152269 14.5584055,36.6386699 13.9757793,36.1466967 C4.6585931,28.279087 0,21.369077 0,15.4166667 Z M15,19 C17.7614237,19 20,16.7614237 20,14 C20,11.2385763 17.7614237,9 15,9 C12.2385763,9 10,11.2385763 10,14 C10,16.7614237 12.2385763,19 15,19 Z" id="Combined-Shape"></path>
            </g>
        </g>
    </g>
</svg>