<?xml version="1.0" encoding="UTF-8"?>
<svg width="37px" height="38px" viewBox="0 0 37 38" version="1.1" xmlns="http://www.w3.org/2000/svg" xmlns:xlink="http://www.w3.org/1999/xlink">
    <!-- Generator: Sketch 53.2 (72643) - https://sketchapp.com -->
    <title>ico_1</title>
    <desc>Created with Sketch.</desc>
    <g id="Page-1" stroke="none" stroke-width="1" fill="none" fill-rule="evenodd">
        <g id="详情页" transform="translate(-44.000000, -805.000000)" fill="#000000">
            <g id="Combined-Shape-2" transform="translate(44.000000, 805.000000)">
                <g id="分组-3">
                    <path d="M18.5,34 C10.4918711,34 4,27.5081289 4,19.5 C4,11.4918711 10.4918711,5 18.5,5 C26.5081289,5 33,11.4918711 33,19.5 C33,27.5081289 26.5081289,34 18.5,34 Z M30.6445088,1.90937954 L35.6233842,6.64611485 C36.2235837,7.21712455 36.2472467,8.16657719 35.676237,8.76677668 C35.6590611,8.78483055 35.6414381,8.80245362 35.6233842,8.81962947 L33.8782256,10.4799149 C33.299069,11.0309052 32.3895732,11.0309052 31.8104166,10.4799149 L26.8315412,5.7431796 C26.2313417,5.1721699 26.2076787,4.22271726 26.7786884,3.62251778 C26.7958643,3.6044639 26.8134874,3.58684084 26.8315412,3.56966499 L28.5766998,1.90937954 C29.1558565,1.35838929 30.0653522,1.35838929 30.6445088,1.90937954 Z M7.0431494,1.25516451 C7.62230606,0.704174255 8.53180178,0.704174255 9.11095844,1.25516451 L10.856117,2.91544996 C10.8741709,2.93262581 10.891794,2.95024887 10.9089698,2.96830275 C11.4799795,3.56850223 11.4563165,4.51795487 10.856117,5.08896457 L5.18958343,10.4799149 C4.61042677,11.0309052 3.70093105,11.0309052 3.12177439,10.4799149 L1.37661581,8.81962947 C1.35856194,8.80245362 1.34093887,8.78483055 1.32376302,8.76677668 C0.752753324,8.16657719 0.776416324,7.21712455 1.37661581,6.64611485 L7.0431494,1.25516451 Z" id="Combined-Shape" opacity="0.3"></path>
                    <path d="M10.2251589,30.5305608 C11.1323324,31.312311 12.1332048,31.981654 13.2077897,32.5179141 L10.9060163,36.7573665 C10.6424942,37.2427267 10.0354051,37.4225621 9.55004489,37.15904 C9.53445986,37.1505783 9.51910268,37.1417034 9.50398964,37.1324249 L8.16458388,36.3101102 C7.71153176,36.0319633 7.55530278,35.4479551 7.80896561,34.9807539 L10.2251589,30.5305608 Z M24.1919092,33.1973266 C25.3250736,32.7966723 26.3950093,32.2549187 27.3821339,31.5923238 L29.1910344,34.9239928 C29.4446972,35.3911941 29.2884682,35.9752023 28.8354161,36.2533491 L27.4960104,37.0756639 C27.4808973,37.0849424 27.4655401,37.0938172 27.4499551,37.102279 C26.9645949,37.3658011 26.3575058,37.1859657 26.0939837,36.7006055 L24.1919092,33.1973266 Z" id="Combined-Shape"></path>
                    <path d="M18.3208655,10 L19.2359329,10 C19.4922541,10 19.7070613,10.1938325 19.7333052,10.4488067 L20.6012218,18.8811097 L26.7426944,22.2907039 C26.9014981,22.3788678 27,22.5462175 27,22.727853 L27,23.5600359 C27,23.8361783 26.7761424,24.0600359 26.5,24.0600359 C26.4567699,24.0600359 26.4137224,24.0544295 26.3719344,24.0433569 L17.3480822,21.6523064 C17.114528,21.5904215 16.9586376,21.3703816 16.9777077,21.1295213 L17.8224253,10.460536 C17.8430127,10.2005118 18.0600276,10 18.3208655,10 Z" id="Path-107"></path>
                </g>
            </g>
        </g>
    </g>
</svg>