<?xml version="1.0" encoding="UTF-8"?>
<svg width="96px" height="96px" viewBox="0 0 96 96" version="1.1" xmlns="http://www.w3.org/2000/svg" xmlns:xlink="http://www.w3.org/1999/xlink">
    <!-- Generator: Sketch 51.1 (57501) - http://www.bohemiancoding.com/sketch -->
    <title>图片</title>
    <desc>Created with Sketch.</desc>
    <defs></defs>
    <g id="Page-1" stroke="none" stroke-width="1" fill="none" fill-rule="evenodd">
        <g id="icon-切图" transform="translate(-580.000000, -222.000000)" fill-rule="nonzero">
            <g id="图片" transform="translate(582.000000, 224.000000)">
                <polyline id="Path-4" stroke="#708DB7" stroke-width="3" points="0 85 0 92 7 92"></polyline>
                <polyline id="Path-4-Copy" stroke="#708DB7" stroke-width="3" transform="translate(88.500000, 88.500000) scale(-1, 1) translate(-88.500000, -88.500000) " points="85 85 85 92 92 92"></polyline>
                <polyline id="Path-4" stroke="#708DB7" stroke-width="3" transform="translate(3.500000, 3.500000) scale(1, -1) translate(-3.500000, -3.500000) " points="0 0 0 7 7 7"></polyline>
                <polyline id="Path-4-Copy" stroke="#708DB7" stroke-width="3" transform="translate(88.500000, 3.500000) scale(-1, -1) translate(-88.500000, -3.500000) " points="85 0 85 7 92 7"></polyline>
                <rect id="Rectangle-4" fill="#F2F6FD" x="1" y="1" width="90" height="90"></rect>
                <path d="M66.0961645,63 L26.9031125,63 C25.2991495,63 24,61.6136004 24,59.903584 L24,35.9124017 C24,34.2034651 25.2992012,32.8163971 26.9031125,32.8163971 L35.821977,32.8163971 C36.5430037,32.2790926 37.3078777,31.3715881 38.1537839,29.9073435 C39.4041282,27.7447575 40.4657588,28.0103247 40.4657588,28.0103247 L50.8512601,28.0103247 C50.8512601,28.0103247 54.0771588,28.0677572 54.9718186,29.9285272 C55.7092687,31.4618243 56.5113276,32.3262418 57.1876807,32.8163971 L66.0961127,32.8163971 L66.0961127,32.8160372 C67.700179,32.8160372 68.9999999,34.2027453 68.9999999,35.9117333 L69,59.903584 C69.0000516,61.6136004 67.7002307,63 66.0961645,63 Z M46.4945255,36.9408898 C40.8503133,36.9408898 36.2751687,41.5503961 36.2751687,47.2354368 C36.2751687,52.9209917 40.8502617,57.5298811 46.4945255,57.5298811 C52.1380664,57.5298811 56.7145538,52.9209917 56.7145538,47.2354368 C56.7145538,41.5503961 52.138118,36.9408898 46.4945255,36.9408898 Z M61.1496351,35.5558784 C60.2103016,35.5558784 59.4481649,36.3252777 59.4481649,37.2751497 C59.4481649,38.2246618 60.2103533,38.9937012 61.1496351,38.9937012 C62.0904146,38.9937012 62.8525513,38.2246617 62.8525513,37.2751497 C62.8525513,36.3252777 62.0904145,35.5558784 61.1496351,35.5558784 Z M46.5000517,55.4588168 C41.9840414,55.4588168 38.3227689,51.7724457 38.3227689,47.2251535 C38.3227689,42.6776043 41.9840414,38.9909761 46.5000517,38.9909761 C51.0161651,38.9909761 54.6772827,42.6776557 54.6772827,47.2251535 C54.6772827,51.7724456 51.0161651,55.4588168 46.5000517,55.4588168 Z M28.2187888,28.6994112 L33.1406831,28.6994112 L33.1406831,30.7994231 L28.2187888,30.7994231 L28.2187888,28.6994112 Z" id="Shape" fill="#03C1AC"></path>
            </g>
        </g>
    </g>
</svg>