<svg width="1296" height="1450" xmlns="http://www.w3.org/2000/svg">
 <style type="text/css">.st0{fill:#EAE633;}
	.st1{stroke:#000000;stroke-miterlimit:10;}</style>

 <g>
  <title>background</title>
  <rect fill="none" id="canvas_background" height="1452" width="1298" y="-1" x="-1"/>
 </g>
 <g>
  <title>Layer 1</title>
  <rect id="svg_1" height="736" width="1314.11" y="-6.19" x="-9.23"/>
  <path id="svg_2" d="m490.63,351.95l-26.59,0l-6.46,-54.71l-7.35,0l-14.66,54.71l-24.87,0l27.6,-127.9l1.38,-6.4l66.59,0l12.04,14.11l-13.22,49.33l-21.16,15.82l6.7,55.04zm-33.72,-79.58l25.73,0l8.04,-30.01l-25.73,0l-8.04,30.01z" class="st0"/>
  <path id="svg_3" d="m596,337.85l-20.02,14.11l-45.22,0l-12.14,-14.02l32.23,-120.28l24.79,0l-29.34,109.51l27.78,0l29.34,-109.51l24.79,0l-32.21,120.19z" class="st0"/>
  <path id="svg_4" d="m668.25,351.95l-8.25,-70.36l-18.85,70.36l-24.71,0l35.98,-134.3l26.59,0l8.31,70.44l18.87,-70.44l24.62,0l-35.94,134.13l0.04,0.17l-26.66,0z" class="st0"/>
  <path id="svg_5" d="m797.73,326.77l1.22,-17.96l-15.6,0l-8.41,17.96l-15.19,0l37.72,-80.63l20.94,0l-5.49,80.63l-15.19,0zm2.23,-32.84l1.64,-24.12l-11.29,24.12l9.65,0z" class="st0"/>
  <path id="svg_6" d="m858.16,261.03l-4.81,17.96l20.43,0l7.23,8.47l-8.28,30.9l-11.75,8.42l-35.64,-0.24l4.69,-14.64l29.55,0l4.81,-17.96l-20.32,0l-7.33,-8.47l8.27,-30.84l11.87,-8.47l38.41,0l-6.07,14.54" class="st0"/>
  <path id="svg_7" d="m603.46,217.87" class="st0"/>
  <polygon id="svg_8" points="422.24,217.65 446.65,231.91 448.44,217.65 " class="st0"/>
  <polygon id="svg_9" points="592.07,217.65 616.47,231.9 618.27,217.65 " class="st0"/>
  <polygon id="svg_10" points="695.37,217.65 719.77,231.9 721.57,217.65 " class="st0"/>
  <g id="svg_11">
   <g id="svg_12">
    <path id="svg_13" d="m675.31,359.47l-46.16,0l-19.59,14.11l-28.46,106.17l12.06,14.02l46.16,0l19.74,-14.02l28.45,-106.17l-12.2,-14.11zm-43.97,121.41l-22.1,0.79l21.87,-82.9l-6.32,0.22l5.22,-19.8l14.85,-5.06l14.78,-0.53l-28.3,107.28z" class="st0"/>
    <path id="svg_14" d="m731.34,493.77l-8.25,-70.36l-18.85,70.36l-24.71,0l35.98,-134.3l26.59,0l8.31,70.44l18.87,-70.44l24.62,0l-35.94,134.13l0.04,0.17l-26.66,0z" class="st0"/>
    <path id="svg_15" d="m846.95,493.77l-64.71,0l35.98,-134.3l64.2,0l-6.64,24.79l-39.41,0l-8.02,29.92l33.94,0l-6.67,24.88l-33.94,0l-8.02,29.92l39.92,0l-6.63,24.79z" class="st0"/>
   </g>
   <polygon id="svg_16" points="753.15,359.46 777.55,373.71 779.35,359.46  " class="st0"/>
  </g>
  <polygon id="svg_17" points="784.23,246.13 808.52,260.32 810.31,246.13 " class="st0"/>
  <g id="svg_18">
   <path id="svg_19" d="m535.92,534.23l17.16,0l-0.68,3.85l-17.16,0l-3.15,17.86l18.39,0l-0.67,3.81l-37.82,0l0.67,-3.81l15.06,0l5.71,-32.4l4.38,0l-1.89,10.69z" class="st0"/>
   <path id="svg_20" d="m563.45,559.75l-4.55,0l7.52,-14.32l4.64,0l-7.61,14.32zm7.45,-16.41l-7.72,-4.9l0.83,-4.73l7.72,4.9l-0.83,4.73zm2.6,-9.81l-7.72,-4.9l0.83,-4.73l7.72,4.9l-0.83,4.73zm2.89,10.42l3.08,-10.51l22.24,0l-2.03,10.51l1.58,0l-0.68,3.85l-1.58,0l-2.21,11.51l-25.04,0l3.43,-11.51l-2.45,0l0.68,-3.85l2.98,0zm4.69,-12.7l-4.55,0l3.81,-7.71l4.38,0l-0.63,1.58l19.44,0l-0.68,3.85l-20.66,0l-1.11,2.28zm-3.66,24.26l15.67,0l1.53,-7.71l-14.97,0l-2.23,7.71zm3.26,-11.56l14.62,0l1.35,-6.65l-14.1,0l-1.87,6.65zm2.52,5.08l4.73,0l1.82,5.08l-4.82,0l-1.73,-5.08zm2.4,-10.6l4.73,0l1.33,4.38l-4.73,0l-1.33,-4.38z" class="st0"/>
   <path id="svg_21" d="m632.72,538.26l-1.17,6.65l15.23,0l-0.68,3.85l-15.23,0l-1.27,7.18l16.55,0l-0.67,3.81l-37.12,0l0.67,-3.81l16.37,0l1.27,-7.18l-15.41,0l0.68,-3.85l15.41,0l1.17,-6.65l-15.24,0l0.68,-3.85l34.32,0l-0.68,3.85l-14.88,0zm-20.17,-4.82l0.71,-4.03l20.52,-6.13l17.28,6.3l-0.71,4.03l-17.28,-6.3l-20.52,6.13z" class="st0"/>
   <path id="svg_22" d="m670.95,557.7l-14.36,0l5.84,-33.1l14.36,0l-5.84,33.1zm-1.66,-15.41l-5.6,0l-2.04,11.56l5.6,0l2.04,-11.56zm-4.92,-3.86l5.6,0l1.76,-9.98l-5.6,0l-1.76,9.98zm26.69,10.51l-9.46,0l-0.43,2.45l-5.85,8.36l-4.73,0l6.18,-9.24l4.66,-26.44l18.39,0l-6.29,35.68l-7.18,0l-1.08,-3.81l4.55,0l1.24,-7zm-8.78,-3.85l9.46,0l1.14,-6.48l-9.46,0l-1.14,6.48zm1.82,-10.33l9.46,0l1.2,-6.83l-9.46,0l-1.2,6.83z" class="st0"/>
   <path id="svg_23" d="m723.97,540.97l4.38,0l-0.4,2.28l15.76,0l-0.65,3.68l-15.76,0l-0.49,2.8l15.06,0l-0.65,3.68l-15.06,0l-0.43,2.45l16.46,0l-0.64,3.63l-37.47,0l0.64,-3.63l16.64,0l0.43,-2.45l-15.59,0l0.65,-3.68l15.59,0l0.49,-2.8l-12.61,0l-1.01,1.75l-4.47,0l3.91,-7.27l4.46,0l-0.85,1.84l11.21,0l0.4,-2.28zm-15.56,-0.61l2.81,-15.94l35.2,0l-2.81,15.94l-15.23,0l-2.1,0l-2.1,0l-15.77,0zm31.9,-6.13l-26.44,0l-0.43,2.45l26.44,0l0.43,-2.45zm-25.8,-3.68l26.44,0l0.43,-2.45l-26.44,0l-0.43,2.45z" class="st0"/>
   <path id="svg_24" d="m766.47,543.16l2.98,0l-0.65,3.68l-2.98,0l-1.14,6.48l3.07,-0.53l-0.73,4.12l-16.28,2.93l0.72,-4.07l1.64,-0.35l2.35,-13.31l4.38,0l-2.19,12.43l2.53,-0.44l2.67,-15.15l-6.84,0l2.56,-14.53l14.19,0l-2.56,14.53l-2.98,0l-0.74,4.21zm-5.41,-8.05l5.43,0l1.17,-6.65l-5.43,0l-1.17,6.65zm12.97,-1.05l12.52,0l-2.56,14.53l-8.14,0l-1.3,7.35l11.64,0l2.64,-4.03l2.36,3.5l-2.78,4.33l-18.91,0l4.53,-25.68zm3.44,-2.63l-4.55,0l4.92,-8.06l4.55,0l-1.18,1.75l15.24,0l-5.32,25.22l-5.25,0l-0.9,-3.85l2.8,0l3.44,-17.51l-12.08,0l-1.67,2.45zm0.29,6.3l-1.27,7.18l4.12,0l1.27,-7.18l-4.12,0z" class="st0"/>
   <path id="svg_25" d="m806.39,524.25l37.12,0l-6.26,35.5l-37.13,0l6.27,-35.5zm27.16,31.7l4.91,-27.84l-28.37,0l-4.91,27.84l28.37,0zm-6.53,-22.07l0.63,-3.59l4.38,0l-0.63,3.59l3.77,0l-0.68,3.85l-3.77,0l-2.66,15.06l-6.74,0l-1.07,-3.85l4.12,0l1.98,-11.21l-3.68,0l-10.01,15.06l-4.64,0l10.1,-15.06l-7.27,0l0.68,-3.85l15.49,0z" class="st0"/>
  </g>
  <polygon id="svg_26" points="893.37,353.68 728.57,353.68 732.23,341.46 897.03,341.46 " class="st0"/>
  <polygon id="svg_27" points="914.38,231.12 749.59,231.12 753.24,218.9 918.04,218.9 " class="st0"/>
  <rect id="svg_28" height="744.07" width="1296.13" class="st0" y="723.849909" x="0.77005"/>
  <path id="svg_29" d="m453.62,1086.97l-26.59,0l-6.46,-54.71l-7.35,0l-14.66,54.71l-24.88,0l27.6,-127.9l1.38,-6.4l66.59,0l12.04,14.11l-13.22,49.33l-21.16,15.82l6.71,55.04zm-33.72,-79.58l25.73,0l8.04,-30.01l-25.73,0l-8.04,30.01z"/>
  <path id="svg_30" d="m558.99,1072.87l-20.02,14.11l-45.22,0l-12.14,-14.02l32.23,-120.28l24.79,0l-29.34,109.51l27.78,0l29.34,-109.51l24.79,0l-32.21,120.19z"/>
  <path id="svg_31" d="m631.24,1086.97l-8.25,-70.36l-18.85,70.36l-24.71,0l35.98,-134.3l26.59,0l8.31,70.44l18.87,-70.44l24.62,0l-35.94,134.13l0.04,0.17l-26.66,0z"/>
  <path id="svg_32" d="m760.72,1061.79l1.22,-17.96l-15.6,0l-8.41,17.96l-15.19,0l37.72,-80.63l20.94,0l-5.49,80.63l-15.19,0zm2.23,-32.85l1.64,-24.12l-11.29,24.12l9.65,0z"/>
  <path id="svg_33" d="m821.15,996.05l-4.81,17.96l20.43,0l7.23,8.47l-8.28,30.9l-11.75,8.42l-35.64,-0.24l4.69,-14.64l29.55,0l4.81,-17.96l-20.32,0l-7.33,-8.47l8.26,-30.84l11.87,-8.47l38.41,0l-6.07,14.54"/>
  <path id="svg_34" d="m566.45,952.89"/>
  <polygon id="svg_35" points="385.23,952.67 409.64,966.92 411.43,952.67 "/>
  <polygon id="svg_36" points="555.06,952.67 579.46,966.92 581.26,952.67 "/>
  <polygon id="svg_37" points="658.36,952.67 682.76,966.92 684.56,952.67 "/>
  <g id="svg_38">
   <g id="svg_39">
    <path id="svg_40" d="m638.3,1094.48l-46.16,0l-19.59,14.11l-28.45,106.17l12.06,14.02l46.16,0l19.74,-14.02l28.45,-106.17l-12.21,-14.11zm-43.97,121.42l-22.1,0.79l21.87,-82.9l-6.32,0.22l5.22,-19.8l14.85,-5.06l14.78,-0.53l-28.3,107.28z" class="st1"/>
    <path id="svg_41" d="m694.33,1228.78l-8.25,-70.36l-18.85,70.36l-24.71,0l35.98,-134.3l26.59,0l8.31,70.44l18.87,-70.44l24.62,0l-35.94,134.13l0.04,0.17l-26.66,0z"/>
    <path id="svg_42" d="m809.93,1228.78l-64.71,0l35.98,-134.3l64.2,0l-6.64,24.79l-39.41,0l-8.02,29.92l33.94,0l-6.67,24.88l-33.94,0l-8.02,29.92l39.92,0l-6.63,24.79z"/>
   </g>
   <polygon id="svg_43" points="716.14,1094.48 740.54,1108.73 742.34,1094.48  "/>
  </g>
  <polygon id="svg_44" points="747.22,981.15 771.51,995.34 773.3,981.15 "/>
  <g id="svg_45">
   <path id="svg_46" d="m498.91,1269.25l17.16,0l-0.68,3.85l-17.16,0l-3.15,17.86l18.39,0l-0.67,3.81l-37.82,0l0.67,-3.81l15.06,0l5.71,-32.4l4.38,0l-1.89,10.69z"/>
   <path id="svg_47" d="m526.44,1294.77l-4.55,0l7.52,-14.32l4.64,0l-7.61,14.32zm7.45,-16.41l-7.72,-4.9l0.83,-4.73l7.72,4.9l-0.83,4.73zm2.6,-9.81l-7.72,-4.9l0.83,-4.73l7.72,4.9l-0.83,4.73zm2.89,10.42l3.08,-10.51l22.24,0l-2.03,10.51l1.58,0l-0.68,3.85l-1.58,0l-2.21,11.51l-25.04,0l3.43,-11.51l-2.45,0l0.68,-3.85l2.98,0zm4.69,-12.7l-4.55,0l3.81,-7.71l4.38,0l-0.63,1.58l19.44,0l-0.68,3.85l-20.66,0l-1.11,2.28zm-3.66,24.26l15.67,0l1.53,-7.71l-14.97,0l-2.23,7.71zm3.26,-11.56l14.62,0l1.35,-6.65l-14.1,0l-1.87,6.65zm2.52,5.08l4.73,0l1.82,5.08l-4.82,0l-1.73,-5.08zm2.39,-10.6l4.73,0l1.33,4.38l-4.73,0l-1.33,-4.38z"/>
   <path id="svg_48" d="m595.71,1273.28l-1.17,6.65l15.23,0l-0.68,3.85l-15.23,0l-1.27,7.18l16.55,0l-0.67,3.81l-37.12,0l0.67,-3.81l16.37,0l1.27,-7.18l-15.41,0l0.68,-3.85l15.41,0l1.17,-6.65l-15.24,0l0.68,-3.85l34.32,0l-0.68,3.85l-14.88,0zm-20.17,-4.82l0.71,-4.03l20.52,-6.13l17.28,6.3l-0.71,4.03l-17.27,-6.3l-20.53,6.13z"/>
   <path id="svg_49" d="m633.94,1292.72l-14.36,0l5.84,-33.1l14.36,0l-5.84,33.1zm-1.66,-15.41l-5.6,0l-2.04,11.56l5.6,0l2.04,-11.56zm-4.92,-3.86l5.6,0l1.76,-9.98l-5.6,0l-1.76,9.98zm26.69,10.51l-9.46,0l-0.43,2.45l-5.85,8.36l-4.73,0l6.18,-9.24l4.66,-26.44l18.39,0l-6.29,35.68l-7.18,0l-1.08,-3.81l4.55,0l1.24,-7zm-8.78,-3.85l9.46,0l1.14,-6.48l-9.46,0l-1.14,6.48zm1.82,-10.33l9.46,0l1.2,-6.83l-9.46,0l-1.2,6.83z"/>
   <path id="svg_50" d="m686.96,1275.99l4.38,0l-0.4,2.28l15.76,0l-0.65,3.68l-15.76,0l-0.49,2.8l15.06,0l-0.65,3.68l-15.06,0l-0.43,2.45l16.46,0l-0.64,3.63l-37.47,0l0.64,-3.63l16.64,0l0.43,-2.45l-15.59,0l0.65,-3.68l15.59,0l0.49,-2.8l-12.62,0l-1.01,1.75l-4.47,0l3.91,-7.27l4.46,0l-0.85,1.84l11.21,0l0.41,-2.28zm-15.56,-0.61l2.81,-15.93l35.2,0l-2.81,15.93l-15.23,0l-2.1,0l-2.1,0l-15.77,0zm31.9,-6.13l-26.44,0l-0.43,2.45l26.44,0l0.43,-2.45zm-25.8,-3.68l26.44,0l0.43,-2.45l-26.44,0l-0.43,2.45z"/>
   <path id="svg_51" d="m729.46,1278.18l2.98,0l-0.65,3.68l-2.98,0l-1.14,6.48l3.07,-0.53l-0.73,4.12l-16.28,2.93l0.72,-4.07l1.64,-0.35l2.35,-13.31l4.38,0l-2.19,12.43l2.53,-0.44l2.67,-15.15l-6.83,0l2.56,-14.53l14.18,0l-2.56,14.53l-2.98,0l-0.74,4.21zm-5.41,-8.05l5.43,0l1.17,-6.65l-5.43,0l-1.17,6.65zm12.97,-1.05l12.52,0l-2.56,14.53l-8.14,0l-1.3,7.36l11.64,0l2.64,-4.03l2.36,3.5l-2.78,4.33l-18.91,0l4.53,-25.69zm3.44,-2.63l-4.55,0l4.92,-8.06l4.55,0l-1.18,1.75l15.24,0l-5.32,25.22l-5.25,0l-0.9,-3.85l2.8,0l3.44,-17.51l-12.08,0l-1.67,2.45zm0.29,6.3l-1.27,7.18l4.12,0l1.27,-7.18l-4.12,0z"/>
   <path id="svg_52" d="m769.38,1259.27l37.12,0l-6.26,35.5l-37.12,0l6.26,-35.5zm27.16,31.7l4.91,-27.84l-28.37,0l-4.91,27.84l28.37,0zm-6.53,-22.07l0.63,-3.59l4.38,0l-0.63,3.59l3.77,0l-0.68,3.85l-3.77,0l-2.66,15.06l-6.74,0l-1.07,-3.85l4.12,0l1.98,-11.21l-3.68,0l-10.01,15.06l-4.65,0l10.1,-15.06l-7.27,0l0.68,-3.85l15.5,0z"/>
  </g>
  <polygon id="svg_53" points="856.36,1088.7 691.56,1088.7 695.22,1076.48 860.02,1076.48 "/>
  <polygon id="svg_54" points="877.37,966.14 712.58,966.14 716.23,953.92 881.03,953.92 "/>
 </g>
</svg>