<?xml version="1.0" encoding="utf-8"?>
<!-- Generator: Adobe Illustrator 23.0.0, SVG Export Plug-In . SVG Version: 6.00 Build 0)  -->
<svg version="1.1" id="图层_1" xmlns="http://www.w3.org/2000/svg" xmlns:xlink="http://www.w3.org/1999/xlink" x="0px" y="0px"
	 viewBox="0 0 1296 1728" style="enable-background:new 0 0 1296 1728;" xml:space="preserve">
<style type="text/css">
	.st0{fill:#EAE633;}
	.st1{stroke:#000000;stroke-miterlimit:10;}
</style>
<rect x="-9.23" y="-6.19" width="1314.11" height="736"/>
<path class="st0" d="M490.63,351.95h-26.59l-6.46-54.71h-7.35l-14.66,54.71H410.7l27.6-127.9l1.38-6.4h66.59l12.04,14.11
	l-13.22,49.33l-21.16,15.82L490.63,351.95z M456.91,272.37h25.73l8.04-30.01h-25.73L456.91,272.37z"/>
<path class="st0" d="M596,337.85l-20.02,14.11h-45.22l-12.14-14.02l32.23-120.28h24.79l-29.34,109.51h27.78l29.34-109.51h24.79
	L596,337.85z"/>
<path class="st0" d="M668.25,351.95l-8.25-70.36l-18.85,70.36h-24.71l35.98-134.3h26.59l8.31,70.44l18.87-70.44h24.62l-35.94,134.13
	l0.04,0.17H668.25z"/>
<path class="st0" d="M797.73,326.77l1.22-17.96h-15.6l-8.41,17.96h-15.19l37.72-80.63h20.94l-5.49,80.63H797.73z M799.96,293.93
	l1.64-24.12l-11.29,24.12H799.96z"/>
<path class="st0" d="M858.16,261.03l-4.81,17.96h20.43l7.23,8.47l-8.28,30.9l-11.75,8.42l-35.64-0.24l4.69-14.64h29.55l4.81-17.96
	h-20.32l-7.33-8.47l8.27-30.84l11.87-8.47h38.41l-6.07,14.54"/>
<path class="st0" d="M603.46,217.87"/>
<polygon class="st0" points="422.24,217.65 446.65,231.91 448.44,217.65 "/>
<polygon class="st0" points="592.07,217.65 616.47,231.9 618.27,217.65 "/>
<polygon class="st0" points="695.37,217.65 719.77,231.9 721.57,217.65 "/>
<g>
	<g>
		<path class="st0" d="M675.31,359.47h-46.16l-19.59,14.11L581.1,479.75l12.06,14.02h46.16l19.74-14.02l28.45-106.17L675.31,359.47z
			 M631.34,480.88l-22.1,0.79l21.87-82.9l-6.32,0.22l5.22-19.8l14.85-5.06l14.78-0.53L631.34,480.88z"/>
		<path class="st0" d="M731.34,493.77l-8.25-70.36l-18.85,70.36h-24.71l35.98-134.3h26.59l8.31,70.44l18.87-70.44h24.62
			l-35.94,134.13l0.04,0.17H731.34z"/>
		<path class="st0" d="M846.95,493.77h-64.71l35.98-134.3h64.2l-6.64,24.79h-39.41l-8.02,29.92h33.94l-6.67,24.88h-33.94
			l-8.02,29.92h39.92L846.95,493.77z"/>
	</g>
	<polygon class="st0" points="753.15,359.46 777.55,373.71 779.35,359.46 	"/>
</g>
<polygon class="st0" points="784.23,246.13 808.52,260.32 810.31,246.13 "/>
<g>
	<path class="st0" d="M535.92,534.23h17.16l-0.68,3.85h-17.16l-3.15,17.86h18.39l-0.67,3.81h-37.82l0.67-3.81h15.06l5.71-32.4h4.38
		L535.92,534.23z"/>
	<path class="st0" d="M563.45,559.75h-4.55l7.52-14.32h4.64L563.45,559.75z M570.9,543.34l-7.72-4.9l0.83-4.73l7.72,4.9
		L570.9,543.34z M573.5,533.53l-7.72-4.9l0.83-4.73l7.72,4.9L573.5,533.53z M576.39,543.95l3.08-10.51h22.24l-2.03,10.51h1.58
		l-0.68,3.85H599l-2.21,11.51h-25.04l3.43-11.51h-2.45l0.68-3.85H576.39z M581.08,531.25h-4.55l3.81-7.71h4.38l-0.63,1.58h19.44
		l-0.68,3.85h-20.66L581.08,531.25z M577.42,555.51h15.67l1.53-7.71h-14.97L577.42,555.51z M580.68,543.95h14.62l1.35-6.65h-14.1
		L580.68,543.95z M583.2,549.03h4.73l1.82,5.08h-4.82L583.2,549.03z M585.6,538.43h4.73l1.33,4.38h-4.73L585.6,538.43z"/>
	<path class="st0" d="M632.72,538.26l-1.17,6.65h15.23l-0.68,3.85h-15.23l-1.27,7.18h16.55l-0.67,3.81h-37.12l0.67-3.81h16.37
		l1.27-7.18h-15.41l0.68-3.85h15.41l1.17-6.65h-15.24l0.68-3.85h34.32l-0.68,3.85H632.72z M612.55,533.44l0.71-4.03l20.52-6.13
		l17.28,6.3l-0.71,4.03l-17.28-6.3L612.55,533.44z"/>
	<path class="st0" d="M670.95,557.7h-14.36l5.84-33.1h14.36L670.95,557.7z M669.29,542.29h-5.6l-2.04,11.56h5.6L669.29,542.29z
		 M664.37,538.43h5.6l1.76-9.98h-5.6L664.37,538.43z M691.06,548.94h-9.46l-0.43,2.45l-5.85,8.36h-4.73l6.18-9.24l4.66-26.44h18.39
		l-6.29,35.68h-7.18l-1.08-3.81h4.55L691.06,548.94z M682.28,545.09h9.46l1.14-6.48h-9.46L682.28,545.09z M684.1,534.76h9.46
		l1.2-6.83h-9.46L684.1,534.76z"/>
	<path class="st0" d="M723.97,540.97h4.38l-0.4,2.28h15.76l-0.65,3.68H727.3l-0.49,2.8h15.06l-0.65,3.68h-15.06l-0.43,2.45h16.46
		l-0.64,3.63h-37.47l0.64-3.63h16.64l0.43-2.45h-15.59l0.65-3.68h15.59l0.49-2.8h-12.61l-1.01,1.75h-4.47l3.91-7.27h4.46l-0.85,1.84
		h11.21L723.97,540.97z M708.41,540.36l2.81-15.94h35.2l-2.81,15.94h-15.23h-2.1h-2.1H708.41z M740.31,534.23h-26.44l-0.43,2.45
		h26.44L740.31,534.23z M714.51,530.55h26.44l0.43-2.45h-26.44L714.51,530.55z"/>
	<path class="st0" d="M766.47,543.16h2.98l-0.65,3.68h-2.98l-1.14,6.48l3.07-0.53l-0.73,4.12l-16.28,2.93l0.72-4.07l1.64-0.35
		l2.35-13.31h4.38l-2.19,12.43l2.53-0.44l2.67-15.15H756l2.56-14.53h14.19l-2.56,14.53h-2.98L766.47,543.16z M761.06,535.11h5.43
		l1.17-6.65h-5.43L761.06,535.11z M774.03,534.06h12.52l-2.56,14.53h-8.14l-1.3,7.35h11.64l2.64-4.03l2.36,3.5l-2.78,4.33H769.5
		L774.03,534.06z M777.47,531.43h-4.55l4.92-8.06h4.55l-1.18,1.75h15.24l-5.32,25.22h-5.25l-0.9-3.85h2.8l3.44-17.51h-12.08
		L777.47,531.43z M777.76,537.73l-1.27,7.18h4.12l1.27-7.18H777.76z"/>
	<path class="st0" d="M806.39,524.25h37.12l-6.26,35.5h-37.13L806.39,524.25z M833.55,555.95l4.91-27.84h-28.37l-4.91,27.84H833.55z
		 M827.02,533.88l0.63-3.59h4.38l-0.63,3.59h3.77l-0.68,3.85h-3.77l-2.66,15.06h-6.74l-1.07-3.85h4.12l1.98-11.21h-3.68
		l-10.01,15.06h-4.64l10.1-15.06h-7.27l0.68-3.85H827.02z"/>
</g>
<polygon class="st0" points="893.37,353.68 728.57,353.68 732.23,341.46 897.03,341.46 "/>
<polygon class="st0" points="914.38,231.12 749.59,231.12 753.24,218.9 918.04,218.9 "/>
<rect x="-3.23" y="732.85" class="st0" width="1296.13" height="744.07"/>
<path d="M453.62,1086.97h-26.59l-6.46-54.71h-7.35l-14.66,54.71h-24.88l27.6-127.9l1.38-6.4h66.59l12.04,14.11l-13.22,49.33
	l-21.16,15.82L453.62,1086.97z M419.9,1007.39h25.73l8.04-30.01h-25.73L419.9,1007.39z"/>
<path d="M558.99,1072.87l-20.02,14.11h-45.22l-12.14-14.02l32.23-120.28h24.79l-29.34,109.51h27.78l29.34-109.51h24.79
	L558.99,1072.87z"/>
<path d="M631.24,1086.97l-8.25-70.36l-18.85,70.36h-24.71l35.98-134.3h26.59l8.31,70.44l18.87-70.44h24.62l-35.94,134.13l0.04,0.17
	H631.24z"/>
<path d="M760.72,1061.79l1.22-17.96h-15.6l-8.41,17.96h-15.19l37.72-80.63h20.94l-5.49,80.63H760.72z M762.95,1028.94l1.64-24.12
	l-11.29,24.12H762.95z"/>
<path d="M821.15,996.05l-4.81,17.96h20.43l7.23,8.47l-8.28,30.9l-11.75,8.42l-35.64-0.24l4.69-14.64h29.55l4.81-17.96h-20.32
	l-7.33-8.47l8.26-30.84l11.87-8.47h38.41l-6.07,14.54"/>
<path d="M566.45,952.89"/>
<polygon points="385.23,952.67 409.64,966.92 411.43,952.67 "/>
<polygon points="555.06,952.67 579.46,966.92 581.26,952.67 "/>
<polygon points="658.36,952.67 682.76,966.92 684.56,952.67 "/>
<g>
	<g>
		<path class="st1" d="M638.3,1094.48h-46.16l-19.59,14.11l-28.45,106.17l12.06,14.02h46.16l19.74-14.02l28.45-106.17L638.3,1094.48
			z M594.33,1215.9l-22.1,0.79l21.87-82.9l-6.32,0.22l5.22-19.8l14.85-5.06l14.78-0.53L594.33,1215.9z"/>
		<path d="M694.33,1228.78l-8.25-70.36l-18.85,70.36h-24.71l35.98-134.3h26.59l8.31,70.44l18.87-70.44h24.62l-35.94,134.13
			l0.04,0.17H694.33z"/>
		<path d="M809.93,1228.78h-64.71l35.98-134.3h64.2l-6.64,24.79h-39.41l-8.02,29.92h33.94l-6.67,24.88h-33.94l-8.02,29.92h39.92
			L809.93,1228.78z"/>
	</g>
	<polygon points="716.14,1094.48 740.54,1108.73 742.34,1094.48 	"/>
</g>
<polygon points="747.22,981.15 771.51,995.34 773.3,981.15 "/>
<g>
	<path d="M498.91,1269.25h17.16l-0.68,3.85h-17.16l-3.15,17.86h18.39l-0.67,3.81h-37.82l0.67-3.81h15.06l5.71-32.4h4.38
		L498.91,1269.25z"/>
	<path d="M526.44,1294.77h-4.55l7.52-14.32h4.64L526.44,1294.77z M533.89,1278.36l-7.72-4.9l0.83-4.73l7.72,4.9L533.89,1278.36z
		 M536.49,1268.55l-7.72-4.9l0.83-4.73l7.72,4.9L536.49,1268.55z M539.38,1278.97l3.08-10.51h22.24l-2.03,10.51h1.58l-0.68,3.85
		h-1.58l-2.21,11.51h-25.04l3.43-11.51h-2.45l0.68-3.85H539.38z M544.07,1266.27h-4.55l3.81-7.71h4.38l-0.63,1.58h19.44l-0.68,3.85
		h-20.66L544.07,1266.27z M540.41,1290.53h15.67l1.53-7.71h-14.97L540.41,1290.53z M543.67,1278.97h14.62l1.35-6.65h-14.1
		L543.67,1278.97z M546.19,1284.05h4.73l1.82,5.08h-4.82L546.19,1284.05z M548.58,1273.45h4.73l1.33,4.38h-4.73L548.58,1273.45z"/>
	<path d="M595.71,1273.28l-1.17,6.65h15.23l-0.68,3.85h-15.23l-1.27,7.18h16.55l-0.67,3.81h-37.12l0.67-3.81h16.37l1.27-7.18h-15.41
		l0.68-3.85h15.41l1.17-6.65h-15.24l0.68-3.85h34.32l-0.68,3.85H595.71z M575.54,1268.46l0.71-4.03l20.52-6.13l17.28,6.3l-0.71,4.03
		l-17.27-6.3L575.54,1268.46z"/>
	<path d="M633.94,1292.72h-14.36l5.84-33.1h14.36L633.94,1292.72z M632.28,1277.31h-5.6l-2.04,11.56h5.6L632.28,1277.31z
		 M627.36,1273.45h5.6l1.76-9.98h-5.6L627.36,1273.45z M654.05,1283.96h-9.46l-0.43,2.45l-5.85,8.36h-4.73l6.18-9.24l4.66-26.44
		h18.39l-6.29,35.68h-7.18l-1.08-3.81h4.55L654.05,1283.96z M645.27,1280.11h9.46l1.14-6.48h-9.46L645.27,1280.11z M647.09,1269.78
		h9.46l1.2-6.83h-9.46L647.09,1269.78z"/>
	<path d="M686.96,1275.99h4.38l-0.4,2.28h15.76l-0.65,3.68h-15.76l-0.49,2.8h15.06l-0.65,3.68h-15.06l-0.43,2.45h16.46l-0.64,3.63
		h-37.47l0.64-3.63h16.64l0.43-2.45h-15.59l0.65-3.68h15.59l0.49-2.8H673.3l-1.01,1.75h-4.47l3.91-7.27h4.46l-0.85,1.84h11.21
		L686.96,1275.99z M671.4,1275.38l2.81-15.93h35.2l-2.81,15.93h-15.23h-2.1h-2.1H671.4z M703.3,1269.25h-26.44l-0.43,2.45h26.44
		L703.3,1269.25z M677.5,1265.57h26.44l0.43-2.45h-26.44L677.5,1265.57z"/>
	<path d="M729.46,1278.18h2.98l-0.65,3.68h-2.98l-1.14,6.48l3.07-0.53l-0.73,4.12l-16.28,2.93l0.72-4.07l1.64-0.35l2.35-13.31h4.38
		l-2.19,12.43l2.53-0.44l2.67-15.15H719l2.56-14.53h14.18l-2.56,14.53h-2.98L729.46,1278.18z M724.05,1270.13h5.43l1.17-6.65h-5.43
		L724.05,1270.13z M737.02,1269.08h12.52l-2.56,14.53h-8.14l-1.3,7.36h11.64l2.64-4.03l2.36,3.5l-2.78,4.33h-18.91L737.02,1269.08z
		 M740.46,1266.45h-4.55l4.92-8.06h4.55l-1.18,1.75h15.24l-5.32,25.22h-5.25l-0.9-3.85h2.8l3.44-17.51h-12.08L740.46,1266.45z
		 M740.75,1272.75l-1.27,7.18h4.12l1.27-7.18H740.75z"/>
	<path d="M769.38,1259.27h37.12l-6.26,35.5h-37.12L769.38,1259.27z M796.54,1290.97l4.91-27.84h-28.37l-4.91,27.84H796.54z
		 M790.01,1268.9l0.63-3.59h4.38l-0.63,3.59h3.77l-0.68,3.85h-3.77l-2.66,15.06h-6.74l-1.07-3.85h4.12l1.98-11.21h-3.68
		l-10.01,15.06H771l10.1-15.06h-7.27l0.68-3.85H790.01z"/>
</g>
<polygon points="856.36,1088.7 691.56,1088.7 695.22,1076.48 860.02,1076.48 "/>
<polygon points="877.37,966.14 712.58,966.14 716.23,953.92 881.03,953.92 "/>
</svg>
